<svg width="12" height="12" viewBox="0 0 12 12" fill="none" xmlns="http://www.w3.org/2000/svg">
<g clip-path="url(#clip0_407_29275)">
<path d="M5.9999 15.9001C8.70653 15.9001 10.9007 13.7059 10.9007 10.9993C10.9007 8.29266 8.70653 6.09851 5.9999 6.09851C3.29328 6.09851 1.09912 8.29266 1.09912 10.9993C1.09912 13.7059 3.29328 15.9001 5.9999 15.9001Z" fill="white"/>
<path d="M5.4783 11.9456C6.24355 11.838 6.51502 9.26837 6.08464 6.2061C5.65427 3.14383 4.68503 0.74856 3.91978 0.856109C3.15453 0.963657 2.88307 3.5333 3.31344 6.59557C3.74381 9.65784 4.71306 12.0531 5.4783 11.9456Z" fill="white"/>
<path d="M6.52142 11.9455C7.28666 12.0531 8.25591 9.65778 8.68628 6.59551C9.11665 3.53324 8.84518 0.963598 8.07994 0.85605C7.31469 0.748501 6.34545 3.14378 5.91508 6.20604C5.4847 9.26831 5.75617 11.838 6.52142 11.9455Z" fill="white"/>
</g>
<defs>
<clipPath id="clip0_407_29275">
<rect width="12" height="12" rx="3.69231" fill="white"/>
</clipPath>
</defs>
</svg>
