<svg preserveAspectRatio="none" overflow="visible" style="display: block;" width="21.75" height="21.75" viewBox="0 0 21.75 21.75" fill="none" xmlns="http://www.w3.org/2000/svg">
<g id="icon-unplug">
<path id="&#232;&#183;&#175;&#229;&#190;&#132; 102" d="M17.875 3.875L20.875 0.875" stroke="#858585" stroke-width="1.75" stroke-linecap="round" stroke-linejoin="round"/>
<path id="&#232;&#183;&#175;&#229;&#190;&#132; 103" d="M0.875 20.875L3.875 17.875" stroke="#858585" stroke-width="1.75" stroke-linecap="round" stroke-linejoin="round"/>
<path id="&#232;&#183;&#175;&#229;&#190;&#132; 104" d="M5.175 19.175C5.39797 19.3987 5.66291 19.5763 5.95463 19.6974C6.24636 19.8185 6.55913 19.8809 6.875 19.8809C7.19087 19.8809 7.50364 19.8185 7.79536 19.6974C8.08709 19.5763 8.35203 19.3987 8.575 19.175L10.875 16.875L4.875 10.875L2.575 13.175C2.35126 13.398 2.17373 13.6629 2.05259 13.9546C1.93146 14.2464 1.86911 14.5591 1.86911 14.875C1.86911 15.1909 1.93146 15.5036 2.05259 15.7954C2.17373 16.0871 2.35126 16.352 2.575 16.575L5.175 19.175Z" stroke="#858585" stroke-width="1.75" stroke-linecap="round" stroke-linejoin="round"/>
<path id="&#232;&#183;&#175;&#229;&#190;&#132; 105" d="M6.375 12.375L8.875 9.875" stroke="#858585" stroke-width="1.75" stroke-linecap="round" stroke-linejoin="round"/>
<path id="&#232;&#183;&#175;&#229;&#190;&#132; 106" d="M9.375 15.375L11.875 12.875" stroke="#858585" stroke-width="1.75" stroke-linecap="round" stroke-linejoin="round"/>
<path id="&#232;&#183;&#175;&#229;&#190;&#132; 107" d="M10.875 4.875L16.875 10.875L19.175 8.575C19.3987 8.35203 19.5763 8.08709 19.6974 7.79536C19.8185 7.50364 19.8809 7.19087 19.8809 6.875C19.8809 6.55913 19.8185 6.24636 19.6974 5.95463C19.5763 5.66291 19.3987 5.39797 19.175 5.175L16.575 2.575C16.352 2.35126 16.0871 2.17373 15.7954 2.05259C15.5036 1.93146 15.1909 1.86911 14.875 1.86911C14.5591 1.86911 14.2464 1.93146 13.9546 2.05259C13.6629 2.17373 13.398 2.35126 13.175 2.575L10.875 4.875Z" stroke="#858585" stroke-width="1.75" stroke-linecap="round" stroke-linejoin="round"/>
</g>
</svg>
