<svg preserveAspectRatio="none" overflow="visible" style="display: block;" width="21" height="19" viewBox="0 0 21 19" fill="none" xmlns="http://www.w3.org/2000/svg">
<g id="icon-archive">
<path id="&#231;&#159;&#169;&#229;&#189;&#162; 39" d="M19.5 0.5H1.5C0.947715 0.5 0.5 0.947715 0.5 1.5V4.5C0.5 5.05228 0.947715 5.5 1.5 5.5H19.5C20.0523 5.5 20.5 5.05228 20.5 4.5V1.5C20.5 0.947715 20.0523 0.5 19.5 0.5Z" stroke="#DADADA" stroke-linecap="round" stroke-linejoin="round"/>
<path id="&#232;&#183;&#175;&#229;&#190;&#132; 155" d="M2.5 5.5V16.5C2.5 17.0304 2.71071 17.5391 3.08579 17.9142C3.46086 18.2893 3.96957 18.5 4.5 18.5H16.5C17.0304 18.5 17.5391 18.2893 17.9142 17.9142C18.2893 17.5391 18.5 17.0304 18.5 16.5V5.5" stroke="#DADADA" stroke-linecap="round" stroke-linejoin="round"/>
<path id="&#232;&#183;&#175;&#229;&#190;&#132; 156" d="M8.5 9.5H12.5" stroke="#DADADA" stroke-linecap="round" stroke-linejoin="round"/>
</g>
</svg>
